<?xml version="1.0" encoding="UTF-8"?>
<svg id="Camada_1" data-name="Camada 1" xmlns="http://www.w3.org/2000/svg" xmlns:xlink="http://www.w3.org/1999/xlink" viewBox="0 0 427 208">
  <defs>
    <style>
      .cls-1 {
        fill: none;
      }

      .cls-2 {
        fill: #4a9ed7;
      }

      .cls-3 {
        fill: #f7c24a;
      }

      .cls-4 {
        fill: #2585c7;
      }

      .cls-5 {
        fill: #f7c348;
      }

      .cls-6 {
        fill: #f8b34d;
      }

      .cls-7 {
        fill: #2687c8;
      }

      .cls-8 {
        clip-path: url(#clippath);
      }
    </style>
    <clipPath id="clippath">
      <rect class="cls-1" width="427" height="208"/>
    </clipPath>
  </defs>
  <g class="cls-8">
    <path class="cls-4" d="M71,131.01l42.16,18.08c4.24,2.41,11.59,3.63,15.47,6.03,3.32,2.05,1.32,5.02-1.87,5.39-3.27.38-6.8-.09-9.9-1.12-13.15-4.41-28.14-14.68-41.53-20.48-6.98-3.02-14.1-5.83-21.58-7.42-.84,5.29-.86,10.84-2.53,15.99-.61,1.88-2.33,6.29-4.12,2.66-1.14-2.31-1.9-10.48-2.1-13.39-.2-2.77.12-5.63.01-8.41-.18-.73-6.94-2.36-6.45-5.01.5-2.72,6.45-.2,6.85-1.64.42-3.55,1.67-21.7,3.19-23.56.38-.47,1.31-.49,1.9-.41,10.18,1.32,3.25,21.14,3.7,27.8.83,1.16,14.12.2,16.47-.07,12.1-1.41,34.86-7.23,35.76-22.26.91-15.01-25.85-18.62-36.68-19.2-24.47-1.29-34.12,3.65-54.44,14.6-9.58,5.17-6.32-2.33-1.84-6.85,9.63-9.71,27.32-15.03,40.74-15.76,16.75-.91,60.36,2.43,58.79,26.79-1.17,18.06-26.98,26.73-42.01,28.24"/>
    <path class="cls-4" d="M289.67,104.33c1.41,1.45,6.63,3.73,8.69,4.56,14.11,5.61,50.52,10.69,56.28,26.22,2.75,7.43-1.35,12.6-8.15,15.14-13.56,5.07-52.42-2.42-59.26-16.73-3.08-6.44.27-12.94,7.5-13.54,1.07-.09,5.17-.37,4.77,1.26-.48,1.98-8.82,2.52-8.55,8.02.3,6.24,14.11,11.64,19.29,13.25,8.08,2.5,30.8,6.49,37.27.75,2.55-2.26,1.82-5.86-.24-8.28-9.99-11.69-45.59-14.72-60.42-24.08-10.08-6.37-6.8-15.62,1.14-22.16,14.22-11.71,57.62-17.22,72.46-5.45,8.53,6.77,2.59,16.92-7.72,15.72-1.62-.19-3.71-1.08-2.5-3.02,1.22-1.96,11.01-2.41,5.74-6.72-3.18-2.6-16.4-4.25-20.71-4.29-10.16-.1-39.73,3.99-45.5,13.05-1.3,2.04-1.94,4.4-.1,6.3"/>
    <path class="cls-4" d="M197,137c-1.86,4.07-3.92,10.82-9.7,8.45-4.95-2.03-3.97-10.2-3.79-14.69.12-3.04.43-9.14,1.1-11.9.51-2.1,3.19-3.01,5.13-2.89,3.45.23,2.87,2.49,2.75,5.28-.21,5.04-2.01,11.07-2.04,16.01,0,.97-.03,2.2,1.29,2.25,2.02-.47,5.39-16.23,6.72-18.79.99-1.9,2.03-1.84,3.94-1.38,5.68,1.39,2.82,5.44,2.61,9.42-.12,2.28-.18,5.25-.03,7.52.05.76.06,2.94,1.26,2.72,1.74-.72,5.47-10.42,5.67-12.38.18-1.68-1.04-3.87.71-5.49.79-.73,8.79-1.53,10.99-2.26,2.31-.78,4.85-3.25,7.38-2.1,1.45.66,2.89,3.24,2.42,4.88-.75,2.63-9.86,3.3-12.41,3.87l6.96,3.79c9.3,5.88,3.65,17.74-6.19,17.21-10.24-.55-11.01-14.05-2.5-13.04,3.27.39,1.46,3.29,1.84,5.67.87,5.35,6.89,2.86,3.75-3.74-.87-1.84-2.59-3.57-4.2-4.8-6.75-5.15-5.16-1.27-7.42,3.9-1.39,3.18-4.63,10.19-8.76,9.79-3.99-.38-5.92-3.09-6.48-6.78-.33-.59-.66-.75-1-.5"/>
    <path class="cls-7" d="M392.03,142.48c1.29.82,1.92-1.13,2.31-1.88,2.57-4.89,3.94-10.44,5.93-15.57,1.07-1.45,3.53-1.07,3.58.79.06,1.96-3.14,10.9-4.12,13.17-2.04,4.74-8.7,15.64-13.61,7.14-4.33-7.5-1.52-31.63-.63-40.88.32-3.31-1.22-8.92,3.76-9.27,2.17-.15,4.08.66,4.47,2.95-.39,4.77-1.35,9.56-1.73,14.33-.37,4.64-.88,9.89-1.02,14.48-.06,2-.08,14.04,1.05,14.75"/>
    <path class="cls-6" d="M166.75,41.5h8.5c1.02,0,1.02,3.5,0,3.5h-8.5c-.87,0-1.22-3,0-3.5"/>
    <path class="cls-3" d="M192.5,15.75c.38-1.23,3.5-.86,3.5,0v8.5c0,1.02-3.5,1.02-3.5,0,0-1.82-.38-7.28,0-8.5"/>
    <path class="cls-2" d="M201,171.5c.67.64-1.79,2.68-2.5,2-.67-.64,1.79-2.68,2.5-2"/>
    <path class="cls-4" d="M157.99,124.76c-.43-4.32-3.74-10.09-8.68-9.74-2.18.15-3.81,1.91-5.81,2.48.39-1.51,1.27-7.41.55-8.29-1.51-1.83-5.32-.04-6.56,1.53-2.07,2.63-.72,12.71-1.88,16.62-1.12,3.8-8.35,15.57-12.81,15.13-3.67-.36-4.04-9.2-3.22-11.66.46-1.36,7.39-1.64,9.94-4.06,5.47-5.18-3.69-21.25-11.55-13.05-8.06,8.42-10.09,39.52,8.36,32.36,4.5-1.75,6.73-5.62,9.66-9.09l-.89,17.15c.6,2.04,5.38,1.65,6.41.61,1.24-1.26.89-12.44.99-14.76,10.58,7.57,16.38-6.42,15.49-15.24ZM124.49,116.5c.6.44.74,6.04.26,7.01-.54,1.1-3.09,1.57-4.26,1.49.38-.8,2.21-9.78,3.99-8.49ZM151.02,127.27c-.1,2.59-1.76,12.72-5.81,9.77-3.54-2.59-2.09-16.77,2.65-17.47,2.92-.43,3.23,5.73,3.16,7.7Z"/>
    <path class="cls-4" d="M367.85,115.61c-2.54.57-5.45,4.72-6.44,7.06-3.51,8.28-1.18,19.98,9.79,18.78,14.31-1.57,12.96-29.51-3.34-25.84ZM370.32,136.44c-3.85-2.28-3.75-15.86-.47-16.86,3.2-.98,4.41,4.73,4.65,7.17.23,2.44-.15,12.07-4.17,9.69Z"/>
    <path class="cls-4" d="M47.67,176.92c-.34,0-.64.07-.91.21-.26.14-.49.35-.68.62-.19.27-.33.6-.43.99-.1.39-.15.83-.15,1.32,0,.67.08,1.23.25,1.68.17.45.43.8.77,1.03.35.23.78.35,1.3.35.47,0,.93-.07,1.36-.2.44-.13.88-.29,1.32-.47v2.42c-.47.21-.95.36-1.44.45-.49.09-1.01.14-1.56.14-1.15,0-2.09-.23-2.82-.68-.73-.46-1.27-1.09-1.62-1.9-.35-.81-.52-1.75-.52-2.83,0-.8.11-1.54.34-2.2.22-.67.55-1.25.99-1.74.44-.49.97-.87,1.61-1.14.64-.27,1.37-.4,2.2-.4.51,0,1.05.06,1.62.18.57.12,1.12.31,1.66.57l-.88,2.25c-.39-.18-.78-.34-1.17-.46-.4-.12-.82-.19-1.26-.19"/>
    <polygon class="cls-4" points="56.99 185.32 56.99 174.73 59.85 174.73 59.85 183.01 63.93 183.01 63.93 185.32 56.99 185.32"/>
    <path class="cls-4" d="M75.01,171.56v.15c-.17.14-.4.31-.67.51-.27.2-.56.41-.86.62s-.59.42-.88.61c-.28.19-.53.35-.73.48h-1.88v-.21c.17-.18.37-.4.61-.66.24-.25.47-.51.71-.78.24-.27.43-.51.59-.73h3.1ZM70.03,174.73h2.88v10.59h-2.88v-10.59Z"/>
    <path class="cls-4" d="M89.69,185.32h-3.75l-3.87-7.46h-.07c.02.23.05.5.07.82.02.32.04.64.05.98.01.33.02.63.02.89v4.77h-2.54v-10.59h3.74l3.85,7.36h.04c-.01-.23-.03-.5-.04-.81-.01-.31-.03-.62-.04-.93-.01-.31-.02-.59-.02-.83v-4.79h2.55v10.59Z"/>
    <rect class="cls-4" x="96.39" y="174.73" width="2.88" height="10.59"/>
    <path class="cls-4" d="M110.68,176.92c-.34,0-.64.07-.91.21-.26.14-.49.35-.68.62-.19.27-.33.6-.43.99-.1.39-.15.83-.15,1.32,0,.67.08,1.23.25,1.68.17.45.43.8.77,1.03.35.23.78.35,1.3.35.47,0,.93-.07,1.36-.2.44-.13.88-.29,1.32-.47v2.42c-.47.21-.95.36-1.44.45-.49.09-1.01.14-1.56.14-1.15,0-2.09-.23-2.82-.68-.73-.46-1.27-1.09-1.62-1.9-.35-.81-.52-1.75-.52-2.83,0-.8.11-1.54.34-2.2.22-.67.55-1.25.99-1.74.44-.49.97-.87,1.61-1.14.64-.27,1.37-.4,2.2-.4.51,0,1.05.06,1.62.18.57.12,1.12.31,1.66.57l-.88,2.25c-.39-.18-.78-.34-1.17-.46-.4-.12-.82-.19-1.26-.19"/>
    <path class="cls-4" d="M126.49,185.32l-.52-1.98h-3.44l-.54,1.98h-3.14l3.46-10.64h3.82l3.5,10.64h-3.13ZM125.38,180.99l-.46-1.74c-.05-.19-.12-.46-.21-.81-.09-.35-.18-.71-.27-1.09-.09-.38-.16-.68-.21-.92-.04.24-.1.54-.18.9-.08.35-.16.71-.25,1.05-.08.35-.16.64-.22.87l-.46,1.74h2.25Z"/>
    <path class="cls-4" d="M147.69,179.12h4.57v5.71c-.55.19-1.17.34-1.88.46-.71.12-1.44.18-2.22.18-1.02,0-1.91-.2-2.68-.59-.77-.4-1.37-1-1.8-1.81-.43-.81-.65-1.83-.65-3.07,0-1.11.21-2.07.64-2.88.43-.81,1.05-1.44,1.88-1.88.83-.44,1.84-.66,3.05-.66.66,0,1.29.06,1.88.19.59.12,1.11.29,1.55.48l-.9,2.25c-.38-.19-.78-.33-1.19-.42-.41-.09-.85-.14-1.32-.14-.63,0-1.14.14-1.53.43-.38.29-.66.67-.84,1.14-.17.48-.26,1-.26,1.58,0,.66.09,1.21.28,1.66.19.45.46.79.82,1.03.36.23.8.35,1.31.35.17,0,.38-.01.62-.04.24-.02.43-.05.55-.09v-1.66h-1.89v-2.21Z"/>
    <polygon class="cls-4" points="165.12 185.32 158.83 185.32 158.83 174.73 165.12 174.73 165.12 177.02 161.69 177.02 161.69 178.69 164.86 178.69 164.86 180.99 161.69 180.99 161.69 182.99 165.12 182.99 165.12 185.32"/>
    <path class="cls-4" d="M174.85,174.73c.96,0,1.76.12,2.4.35.64.23,1.12.58,1.44,1.05.32.46.48,1.04.48,1.73,0,.43-.07.82-.22,1.17-.14.35-.35.67-.62.94-.27.28-.59.52-.96.73l3.09,4.61h-3.25l-2.25-3.85h-.72v3.85h-2.86v-10.59h3.47ZM174.81,176.89h-.57v2.42h.54c.44,0,.8-.1,1.08-.29.28-.19.42-.54.42-1.04,0-.34-.12-.61-.35-.81-.23-.19-.61-.29-1.12-.29"/>
    <rect class="cls-4" x="185.83" y="174.73" width="2.88" height="10.59"/>
    <path class="cls-4" d="M201.9,185.32l-.52-1.98h-3.44l-.54,1.98h-3.14l3.46-10.64h3.82l3.5,10.64h-3.13ZM203.18,171.56v.15c-.17.14-.4.31-.67.51-.27.2-.56.41-.86.62-.3.22-.59.42-.88.61-.28.19-.53.35-.73.48h-1.88v-.21c.17-.18.37-.4.61-.65.24-.25.47-.51.71-.78.24-.27.43-.51.59-.73h3.1ZM200.78,180.99l-.46-1.74c-.05-.19-.12-.46-.21-.81-.09-.35-.18-.71-.27-1.09-.09-.38-.16-.68-.21-.92-.04.24-.1.54-.18.9-.08.35-.16.71-.25,1.05-.08.35-.16.64-.22.87l-.46,1.74h2.25Z"/>
    <polygon class="cls-4" points="215.25 185.32 212.39 185.32 212.39 177.07 209.81 177.07 209.81 174.73 217.83 174.73 217.83 177.07 215.25 177.07 215.25 185.32"/>
    <path class="cls-4" d="M227.23,174.73c.96,0,1.76.12,2.4.35.64.23,1.12.58,1.44,1.05.32.46.48,1.04.48,1.73,0,.43-.07.82-.22,1.17-.14.35-.35.67-.62.94-.27.28-.59.52-.96.73l3.09,4.61h-3.24l-2.25-3.85h-.72v3.85h-2.86v-10.59h3.47ZM227.18,176.89h-.56v2.42h.54c.44,0,.8-.1,1.08-.29.28-.19.42-.54.42-1.04,0-.34-.12-.61-.35-.81-.23-.19-.6-.29-1.12-.29"/>
    <rect class="cls-4" x="238.2" y="174.73" width="2.88" height="10.59"/>
    <path class="cls-4" d="M252.49,176.92c-.34,0-.64.07-.91.21-.27.14-.49.35-.68.62-.19.27-.33.6-.43.99-.1.39-.15.83-.15,1.32,0,.67.08,1.23.25,1.68.17.45.43.8.77,1.03.35.23.78.35,1.3.35.47,0,.93-.07,1.37-.2.44-.13.88-.29,1.32-.47v2.42c-.47.21-.95.36-1.44.45-.49.09-1.01.14-1.56.14-1.15,0-2.09-.23-2.82-.68-.73-.46-1.27-1.09-1.62-1.9-.35-.81-.52-1.75-.52-2.83,0-.8.11-1.54.34-2.2.23-.67.55-1.25.99-1.74.43-.49.97-.87,1.61-1.14.64-.27,1.37-.4,2.2-.4.51,0,1.05.06,1.62.18.57.12,1.12.31,1.66.57l-.88,2.25c-.39-.18-.78-.34-1.17-.46-.4-.12-.82-.19-1.26-.19"/>
    <path class="cls-4" d="M268.31,185.32l-.52-1.98h-3.44l-.54,1.98h-3.14l3.46-10.64h3.82l3.5,10.64h-3.13ZM267.2,180.99l-.46-1.74c-.05-.19-.12-.46-.21-.81-.09-.35-.18-.71-.27-1.09-.09-.38-.16-.68-.21-.92-.04.24-.1.54-.18.9-.08.35-.16.71-.25,1.05-.08.35-.16.64-.22.87l-.46,1.74h2.25Z"/>
    <polygon class="cls-4" points="291.54 185.32 285.25 185.32 285.25 174.73 291.54 174.73 291.54 177.02 288.12 177.02 288.12 178.69 291.29 178.69 291.29 180.99 288.12 180.99 288.12 182.99 291.54 182.99 291.54 185.32"/>
    <path class="cls-4" d="M309.54,174.73c.96,0,1.76.12,2.4.35.64.23,1.12.58,1.44,1.05.32.46.48,1.04.48,1.73,0,.43-.07.82-.22,1.17-.14.35-.35.67-.62.94-.27.28-.59.52-.96.73l3.09,4.61h-3.24l-2.25-3.85h-.72v3.85h-2.86v-10.59h3.47ZM309.49,176.89h-.56v2.42h.54c.44,0,.8-.1,1.08-.29.28-.19.42-.54.42-1.04,0-.34-.12-.61-.35-.81-.23-.19-.61-.29-1.12-.29"/>
    <polygon class="cls-4" points="326.8 185.32 320.52 185.32 320.52 174.73 326.8 174.73 326.8 177.02 323.38 177.02 323.38 178.69 326.55 178.69 326.55 180.99 323.38 180.99 323.38 182.99 326.8 182.99 326.8 185.32"/>
    <path class="cls-4" d="M336.73,174.73c1.34,0,2.35.29,3.02.88.67.58,1,1.42,1,2.49,0,.48-.07.95-.21,1.39-.14.44-.36.84-.67,1.19-.31.35-.73.62-1.24.83-.51.2-1.15.31-1.9.31h-.8v3.51h-2.86v-10.59h3.67ZM336.67,177.04h-.74v2.44h.56c.25,0,.48-.04.69-.13.21-.08.38-.22.51-.41.13-.19.19-.45.19-.76s-.1-.6-.3-.82c-.2-.21-.51-.32-.92-.32"/>
    <path class="cls-4" d="M356.76,180.01c0,.82-.1,1.56-.29,2.23-.2.67-.5,1.25-.92,1.73-.42.48-.95.85-1.6,1.11-.65.26-1.43.39-2.34.39s-1.66-.13-2.31-.39c-.65-.26-1.18-.63-1.61-1.11-.42-.48-.73-1.06-.93-1.73s-.3-1.42-.3-2.25c0-1.1.18-2.06.55-2.87.36-.81.93-1.44,1.69-1.89.76-.45,1.74-.67,2.93-.67s2.19.22,2.95.67c.76.45,1.31,1.08,1.66,1.9.35.82.53,1.77.53,2.88M349.47,180.01c0,.64.07,1.19.22,1.65.14.46.37.81.69,1.06.31.25.72.37,1.23.37s.95-.12,1.26-.37c.31-.25.54-.6.67-1.06.14-.46.21-1.01.21-1.65,0-.96-.16-1.71-.48-2.27-.32-.56-.87-.83-1.65-.83-.52,0-.93.13-1.25.38-.32.25-.55.61-.69,1.07-.14.46-.21,1.01-.21,1.65"/>
    <path class="cls-4" d="M372.09,174.73v6.38c0,.89-.17,1.66-.51,2.31-.34.66-.85,1.16-1.52,1.51-.68.36-1.52.53-2.54.53-1.46,0-2.57-.37-3.34-1.12-.77-.75-1.15-1.81-1.15-3.17v-6.44h2.88v6.22c0,.75.14,1.29.42,1.63.28.34.69.51,1.24.51.39,0,.71-.07.96-.22.25-.15.42-.38.54-.7.11-.32.17-.73.17-1.23v-6.2h2.86Z"/>
    <path class="cls-4" d="M385.64,182.1c0,.58-.15,1.12-.44,1.63-.29.51-.74.93-1.35,1.25-.61.32-1.4.48-2.36.48-.48,0-.91-.02-1.27-.06-.37-.04-.7-.11-1.02-.21-.31-.1-.64-.23-.98-.39v-2.55c.57.29,1.15.51,1.74.66.59.15,1.11.23,1.59.23.29,0,.52-.03.7-.1.18-.07.32-.16.4-.28.09-.12.13-.25.13-.41,0-.18-.06-.34-.19-.47s-.33-.26-.61-.4c-.28-.14-.65-.31-1.11-.52-.39-.18-.75-.37-1.06-.57-.32-.19-.59-.41-.81-.66-.23-.25-.4-.54-.52-.87-.12-.33-.18-.73-.18-1.18,0-.68.17-1.25.5-1.71.33-.46.8-.81,1.41-1.04.6-.23,1.29-.35,2.08-.35.69,0,1.31.08,1.86.23s1.05.33,1.49.53l-.88,2.21c-.45-.21-.9-.37-1.34-.5-.44-.12-.85-.18-1.22-.18-.25,0-.45.03-.61.09-.16.06-.27.14-.35.24-.07.1-.11.22-.11.35,0,.16.07.31.19.44.13.13.34.27.64.42.3.15.71.35,1.23.59.52.23.96.48,1.32.75.36.27.64.59.83.96.19.37.29.84.29,1.39"/>
    <path class="cls-4" d="M401.6,180.01c0,.82-.1,1.56-.29,2.23-.2.67-.5,1.25-.92,1.73-.42.48-.95.85-1.6,1.11-.65.26-1.43.39-2.34.39s-1.66-.13-2.31-.39c-.65-.26-1.18-.63-1.61-1.11-.42-.48-.73-1.06-.93-1.73s-.3-1.42-.3-2.25c0-1.1.18-2.06.55-2.87.36-.81.93-1.44,1.69-1.89.76-.45,1.74-.67,2.93-.67s2.19.22,2.95.67c.76.45,1.31,1.08,1.66,1.9.35.82.53,1.77.53,2.88M394.31,180.01c0,.64.07,1.19.22,1.65.14.46.37.81.69,1.06.31.25.72.37,1.23.37s.95-.12,1.26-.37c.31-.25.54-.6.67-1.06.14-.46.21-1.01.21-1.65,0-.96-.16-1.71-.48-2.27-.32-.56-.87-.83-1.65-.83-.52,0-.93.13-1.25.38-.32.25-.55.61-.69,1.07-.14.46-.21,1.01-.21,1.65"/>
    <path class="cls-4" d="M243.84,115.4c-2.54.57-5.45,4.72-6.44,7.06-3.51,8.28-1.18,19.98,9.79,18.78,14.31-1.57,12.96-29.51-3.34-25.84ZM246.31,136.23c-3.85-2.28-3.75-15.86-.47-16.86,3.2-.98,4.41,4.73,4.65,7.17.23,2.44-.15,12.07-4.17,9.69Z"/>
    <path class="cls-4" d="M167.86,115.45c-2.54.57-5.45,4.72-6.44,7.06-3.51,8.28-1.18,19.98,9.79,18.78,14.31-1.57,12.96-29.51-3.34-25.84ZM170.33,136.29c-3.85-2.28-3.75-15.86-.47-16.86,3.2-.98,4.41,4.73,4.65,7.17.23,2.44-.15,12.07-4.17,9.69Z"/>
    <path class="cls-6" d="M174.3,23.94l6.73,5.19c.81.62-1.33,3.4-2.14,2.77l-6.73-5.19c-.69-.53.87-3.12,2.14-2.77"/>
    <path class="cls-6" d="M173.4,61.3l5.5-6.48c.66-.78,3.33,1.48,2.67,2.26l-5.5,6.48c-.56.66-3.08-1.01-2.67-2.26"/>
    <path class="cls-6" d="M192.27,71.23v-8.5c0-1.02,3.5-1.02,3.5,0v8.5c0,.87-3,1.22-3.5,0"/>
    <path class="cls-3" d="M213.82,23.61c1.17-.54,2.97,2.03,2.33,2.61l-6.33,5.67c-.76.68-3.1-1.93-2.33-2.61,1.36-1.21,5.18-5.14,6.33-5.67"/>
    <path class="cls-6" d="M213.29,41.29h8.5c1.02,0,1.02,3.5,0,3.5h-8.5c-.87,0-1.22-3,0-3.5"/>
  </g>
  <circle class="cls-5" cx="194.7" cy="43.78" r="11.78"/>
  <path class="cls-5" d="M207.26,63.7c1.67-3.9,17.33-15.08,21.5-15.27s21.25,12.86,22.75,15.27,1.13,30.21,0,31.62-15.47,1.24-16.29,0,.82-14.3,0-17.06-10-3-10.89,0,2.32,16.14,0,17.06-16.2,2.05-17.06,0-1.67-27.71,0-31.62Z"/>
</svg>